/* XPM */
static char *coins[] = {
/* columns rows colors chars-per-pixel */
"48 48 156 2 ",
"   c black",
".  c #050000",
"X  c #000501",
"o  c #010204",
"O  c #040006",
"+  c #060606",
"@  c #0A0901",
"#  c #000009",
"$  c #060009",
"%  c #00000C",
"&  c gray3",
"*  c #0C0C0C",
"=  c #1C160F",
"-  c #101010",
";  c gray8",
":  c #1D1715",
">  c #161812",
",  c #181816",
"<  c #171A1B",
"1  c #171A1E",
"2  c #141D1E",
"3  c #1B1B1B",
"4  c #1C1B1A",
"5  c #1D1D1A",
"6  c #19191D",
"7  c #1B1C1D",
"8  c #1D1D1D",
"9  c #351808",
"0  c #231C1C",
"q  c #363516",
"w  c #071B27",
"e  c #1C1621",
"r  c #1C1C21",
"t  c #202121",
"y  c #222222",
"u  c #20202D",
"i  c gray16",
"p  c #2C2C2C",
"a  c #3C2E23",
"s  c gray20",
"d  c #383136",
"f  c #3D3A3F",
"g  c #711A1C",
"h  c #4A2815",
"j  c #552E14",
"k  c #4D3011",
"l  c #6B1E24",
"z  c #6E2127",
"x  c gray25",
"c  c gray27",
"v  c gray29",
"b  c #544452",
"n  c #555657",
"m  c #615F65",
"M  c #5F6063",
"N  c #626262",
"B  c #646464",
"V  c #6F666D",
"C  c #6E696D",
"Z  c #70666E",
"A  c #726770",
"S  c gray47",
"D  c #991D25",
"F  c #AF1F22",
"G  c #A51F29",
"H  c #B01F26",
"J  c #B21B29",
"K  c #A92127",
"L  c #AD2227",
"P  c #AD2128",
"I  c #B52225",
"U  c #B82327",
"Y  c #C4252A",
"T  c #D9262E",
"R  c #D12A2E",
"E  c #F82E30",
"W  c #FB2C38",
"Q  c #97581E",
"!  c #8A4E28",
"~  c #8F4E28",
"^  c #904F28",
"/  c #8C5521",
"(  c #AC6C23",
")  c #AB6B27",
"_  c #AE6927",
"`  c #AB692A",
"'  c #AC6A29",
"]  c #B16926",
"[  c #B06D26",
"{  c #B67028",
"}  c #B67130",
"|  c #CE7F32",
" . c #9F6964",
".. c #9E6969",
"X. c #827E7F",
"o. c #529868",
"O. c #CC8534",
"+. c #C6883C",
"@. c #DB8531",
"#. c #D68C38",
"$. c #F28F34",
"%. c #EE9036",
"&. c #FB9433",
"*. c #FC9433",
"=. c #FC9337",
"-. c #F99637",
";. c #FD9536",
":. c #F49834",
">. c #F79538",
",. c #F6973D",
"<. c #FC9638",
"1. c #F0983A",
"2. c #A2AD42",
"3. c #A0AE45",
"4. c #E5F95C",
"5. c #E4F962",
"6. c #E7FB67",
"7. c #918D92",
"8. c #8F9595",
"9. c #8C9897",
"0. c #979697",
"q. c #989592",
"w. c #919996",
"e. c #9D959F",
"r. c #989898",
"t. c #9C9D99",
"y. c gray62",
"u. c #A0A0A0",
"i. c #AAAAAA",
"p. c #ADACAB",
"a. c gray68",
"s. c gray75",
"d. c #E78C8D",
"f. c #CAA98D",
"g. c #C8AB8D",
"h. c #F1BF87",
"j. c #BEC1C0",
"k. c gray81",
"l. c #CFD2D0",
"z. c gray84",
"x. c #D5D6DA",
"c. c #D5D6DC",
"v. c #D8D8D8",
"b. c #DADFDA",
"n. c #DEDFDB",
"m. c #DBDFDC",
"M. c #DFDFDF",
"N. c #E1E2DE",
"B. c #CEDAE0",
"V. c #D8DAE0",
"C. c #DFDFE1",
"Z. c #E0DAE4",
"A. c #DCE0E3",
"S. c #D6E3E9",
"D. c #E3E3E2",
"F. c #E9E9E9",
/* pixels */
"o.o.o.o.o.o.o.o.o.o.o.o.o.o.o.o.o.o.o.o.o.o.o.o.o.o.o.o.o.o.o.o.o.o.o.o.o.o.o.o.o.o.o.o.o.o.o.o.",
"o.o.o.o.o.o.o.o.o.o.o.o.o.o.o.o.o.o.o.o.o.o.o.o.o.o.o.o.o.o.o.o.o.o.o.o.o.o.o.o.o.o.o.o.o.o.o.o.",
"o.o.o.o.o.o.o.o.o.o.o.o.o.o.o.o.o.o.o.o.o.o.o.o.o.o.o.o.o.o.o.o.o.o.o.o.o.o.o.o.o.o.o.o.o.o.o.o.",
"o.o.o.o.o.o.o.o.o.o.o.o.o.o.o.o.o.o.o.o.o.o.o.o.o.o.o.o.o.o.o.o.o.o.o.o.o.o.o.o.o.o.o.o.o.o.o.o.",
"o.o.o.o.o.o.o.o.o.o.o.o.o.o.o.o.o.o.o.o.o.o.o.o.o.o.o.o.o.o.o.o.o.o.o.o.o.o.o.o.o.o.o.o.o.o.o.o.",
"o.o.o.o.o.o.o.o.o.o.o.o.o.o.o.o.o.o.o.o.o.o.o.o.o.o.o.o.o.o.o.o.o.o.o.o.o.o.o.o.o.o.o.o.o.o.o.o.",
"o.o.o.o.o.o.o.o.o.o.o.o.o.o.o.o.o.o.o.o.o.o.o.o.o.o.o.o.o.o.o.o.o.o.o.o.o.o.o.o.o.o.o.o.o.o.o.o.",
"o.o.o.o.o.o.o.o.o.o.o.o.o.o.o.o.o.o.o.o.o.o.o.o.o.o.o.o.o.o.o.o.o.o.o.o.o.o.o.o.o.o.o.o.o.o.o.o.",
"o.o.o.o.o.o.o.o.o.o.o.o.o.o.o.o.o.o.o.o.o.o.o.o.o.o.o.o.o.o.o.o.o.o.o.o.o.o.o.o.o.o.o.o.o.o.o.o.",
"o.o.o.o.o.o.o.o.o.o.o.o.o.o.o.o.o.o.o.o.o.o.o.o.o.o.o.o.o.o.o.o.o.o.o.o.o.o.o.o.o.o.o.o.o.o.o.o.",
"o.o.o.o.o.o.o.o.o.o.o.o.o.o.o.o.o.o.o.o.o.o.o.o.o.o.o.o.o.o.o.o.o.o.o.o.o.o.o.o.o.o.o.o.o.o.o.o.",
"o.o.o.o.o.o.o.o.o.o.o.o.o.o.o.o.o.o.o.o.o.o.o.o.o.o.o.o.o.o.o.o.o.o.o.o.o.o.o.o.o.o.o.o.o.o.o.o.",
"o.o.o.o.o.o.o.o.o.o.o.o.o.o.o.o.o.o.o.o.o.o.o.o.o.o.o.o.o.o.o.o.o.    o.o.o.o.o.o.o.o.o.o.o.o.o.",
"o.o.o.o.o.o.o.o.o.o.o.o.o.o.o.o.o.o.o.o.o.o.o.o.o.o.o.o.o.o.o.o.o.:.z.  o.o.o.o.o.o.o.o.o.o.o.o.",
"o.o.o.o.o.o.o.o.o.o.o.o.o.o.o.o.o.o.o.o.o.o.o.o.o.o.o.o.o.o.o.o.o.-.  l.o.o.o.o.o.o.o.o.o.o.o.o.",
"o.o.o.o.o.o.o.o.o.o.o.o.o.o.o.o.o.o.o.o.o.o.o.o.o.o.o.o.o.o.o.o.o.X -.@   o.o.o.o.o.o.o.o.o.o.o.",
"o.o.o.o.o.o.o.o.o.o.o.o.o.o.o.o.o.o.o.o.o.o.o.o.o.S.. . . . . +   8 -.1.. o.o.o.o.o.o.o.o.o.o.o.",
"o.o.o.o.o.o.o.o.x D D R j.T T 3 3 3 o.o.o.o.o.o.#.+.-.-.-.-.$.9 =   a h { o.o.o.o.o.o.o.o.o.o.o.",
"o.o.o.o.o.o.o.o.o.o o e.8.K K E 3 y   + o.o.o.  >.-.-.! ! -.%.-.-.;.y r 6 o.o.o.o.o.o.o.o.o.o.o.",
"o.o.o.o.o.o.o.o.o.o.o.  .   L H   3 3 8       ,.-.-.~ ` ` ~ ^ -.>.[ ` 3   o.o.o.o.o.o.o.o.o.o.o.",
"o.o.o.o.o.o.o.o.o.o.o.o.o.o.    K   . 3 4 0   <.3 5 ' ' @.' ' ] )       o.o.o.o.o.o.o.o.o.o.o.o.",
"o.o.o.o.o.o.o.o.o.o.o.o.o.o.o.o.  L d.      z.>.z.p._ -.-.-.-.O     o.o.o.o.o.o.o.o.o.o.o.o.o.o.",
"o.o.o.o.o.o.o.o.o.o.o.      o.o.o.K R c.z.z.z.5 i.8 =.-.-.-.( D.# 4.      o.o.o.o.o.o.o.o.o.o.o.",
"o.o.o.o.o.o.o.o.o.o.  y   F.    o.  L W x.B.z.v.5 z.z.z.-.-.% M.M.3.y y y   p o.o.o.o.o.o.o.o.o.",
"o.o.o.o.o.o.o.o.N 3 y }   X.s.u.c a.g L Y n t.v z.z.y.y.i.0.r.v ; q   } } u y c o.o.o.o.o.o.o.o.",
"o.o.o.o.o.o.o.o.i y _ m.:.. C a.F.  # L L V.a.8 I J 0.0.0.0.o.  y   5.o m.&.y   o.o.o.o.o.o.o.o.",
"o.o.o.o.o.o.o.o.; 0 n.  X     Z a.F.S   > a.Z M F L L L L 0.o.; y C.3.$   b.O.y o.o.o.o.o.o.o.o.",
"o.o.o.o.o.o.o.o.; 3 A.M.    y   Z a.k.o ; C ; m   P w.0...  o.3 3 N.2.6.M.Z.| y o.o.o.o.o.o.o.o.",
"o.o.o.o.o.o.o.o.; 3 -.  y y y y   Z 7.a.5 C ; Q   P L L ..  o.3 3 _   3.  -.| y o.o.o.o.o.o.o.o.",
"o.o.o.o.o.o.o.o.; 3 _   3 3 3 3 y   f V Z V ; s X P q.L ..  o.3 3 _       *.| y o.o.o.o.o.o.o.o.",
"o.o.o.o.o.o.o.o.; 3 M.v.  3 3 3 3 y -   A b ;   U G 9.L  .  o.3 3 D.M.  M.v.| y o.o.o.o.o.o.o.o.",
"o.o.o.o.o.o.o.o.8 : g.B k N j * * * + * d d , 3 3 l l l z   o.& 4 g.N k N h./ - o.o.o.o.o.o.o.o.",
"o.o.o.o.o.o.o.o.i 3 1 _ ' _ 7 3   o.      3 3 3 3 3 3 3 - o.o.  3 2 _ ' _ w 3   o.o.o.o.o.o.o.o.",
"o.o.o.o.o.o.o.o.o.  3 , , , e 3 o.o.o.o.                n o.o.o.  < , , , 4 ; o.o.o.o.o.o.o.o.o.",
"o.o.o.o.o.o.o.o.o.o.  3 3 3     o.o.o.o.o.o.o.o.o.o.o.o.o.o.o.o.o.  3 3 3   p o.o.o.o.o.o.o.o.o.",
"o.o.o.o.o.o.o.o.o.o.o.      o.o.o.o.o.o.o.o.o.o.o.o.o.o.o.o.o.o.o.o.      o.o.o.o.o.o.o.o.o.o.o.",
"o.o.o.o.o.o.o.o.o.o.o.o.o.o.o.o.o.o.o.o.o.o.o.o.o.o.o.o.o.o.o.o.o.o.o.o.o.o.o.o.o.o.o.o.o.o.o.o.",
"o.o.o.o.o.o.o.o.o.o.o.o.o.o.o.o.o.o.o.o.o.o.o.o.o.o.o.o.o.o.o.o.o.o.o.o.o.o.o.o.o.o.o.o.o.o.o.o.",
"o.o.o.o.o.o.o.o.o.o.o.o.o.o.o.o.o.o.o.o.o.o.o.o.o.o.o.o.o.o.o.o.o.o.o.o.o.o.o.o.o.o.o.o.o.o.o.o.",
"o.o.o.o.o.o.o.o.o.o.o.o.o.o.o.o.o.o.o.o.o.o.o.o.o.o.o.o.o.o.o.o.o.o.o.o.o.o.o.o.o.o.o.o.o.o.o.o.",
"o.o.o.o.o.o.o.o.o.o.o.o.o.o.o.o.o.o.o.o.o.o.o.o.o.o.o.o.o.o.o.o.o.o.o.o.o.o.o.o.o.o.o.o.o.o.o.o.",
"o.o.o.o.o.o.o.o.o.o.o.o.o.o.o.o.o.o.o.o.o.o.o.o.o.o.o.o.o.o.o.o.o.o.o.o.o.o.o.o.o.o.o.o.o.o.o.o.",
"o.o.o.o.o.o.o.o.o.o.o.o.o.o.o.o.o.o.o.o.o.o.o.o.o.o.o.o.o.o.o.o.o.o.o.o.o.o.o.o.o.o.o.o.o.o.o.o.",
"o.o.o.o.o.o.o.o.o.o.o.o.o.o.o.o.o.o.o.o.o.o.o.o.o.o.o.o.o.o.o.o.o.o.o.o.o.o.o.o.o.o.o.o.o.o.o.o.",
"o.o.o.o.o.o.o.o.o.o.o.o.o.o.o.o.o.o.o.o.o.o.o.o.o.o.o.o.o.o.o.o.o.o.o.o.o.o.o.o.o.o.o.o.o.o.o.o.",
"o.o.o.o.o.o.o.o.o.o.o.o.o.o.o.o.o.o.o.o.o.o.o.o.o.o.o.o.o.o.o.o.o.o.o.o.o.o.o.o.o.o.o.o.o.o.o.o.",
"o.o.o.o.o.o.o.o.o.o.o.o.o.o.o.o.o.o.o.o.o.o.o.o.o.o.o.o.o.o.o.o.o.o.o.o.o.o.o.o.o.o.o.o.o.o.o.o.",
"o.o.o.o.o.o.o.o.o.o.o.o.o.o.o.o.o.o.o.o.o.o.o.o.o.o.o.o.o.o.o.o.o.o.o.o.o.o.o.o.o.o.o.o.o.o.o.o."
};
