/* XPM */
static char *_fe84caada2c49f8e5585970478c8d4bMsyypkF4Q2gA9nR9[] = {
/* columns rows colors chars-per-pixel */
"48 48 119 2 ",
"   c #1E1916",
".  c #1C1B1B",
"X  c #211409",
"o  c #2E190A",
"O  c #341A07",
"+  c #3A1E0A",
"@  c #201711",
"#  c #261D17",
"$  c #2D1E14",
"%  c #201F19",
"&  c #3A220E",
"*  c #2A221B",
"=  c #322316",
"-  c #3B2311",
";  c #31241B",
":  c #3E2B1B",
">  c #242424",
",  c #2C2623",
"<  c #2E2925",
"1  c #272A28",
"2  c #2C2B2B",
"3  c #332A24",
"4  c #3C2B20",
"5  c #322F2C",
"6  c #243228",
"7  c #2D312E",
"8  c #2B3A2F",
"9  c #36322E",
"0  c #3B3128",
"q  c #333333",
"w  c #3A3735",
"e  c #313F35",
"r  c #393836",
"t  c #3C3C3B",
"y  c #4A260C",
"u  c #4D290D",
"i  c #532C0F",
"p  c #5C2C0A",
"a  c #4A2E17",
"s  c #4D2F18",
"d  c #542E11",
"f  c #563215",
"g  c #5D3414",
"h  c #573518",
"j  c #58371A",
"k  c #5B391C",
"l  c #66330F",
"z  c #6F360D",
"x  c #71370D",
"c  c #73380F",
"v  c #793B0F",
"b  c #613413",
"n  c #683510",
"m  c #6C3812",
"M  c #6F3E18",
"N  c #703911",
"B  c #7A3C10",
"V  c #4D3622",
"C  c #403731",
"Z  c #403832",
"A  c #2D4133",
"S  c #344138",
"D  c #2B5037",
"F  c #2E5239",
"G  c #35543E",
"H  c #325C3F",
"J  c #76431A",
"K  c #79451C",
"L  c #744721",
"P  c #764C27",
"I  c #7D4D24",
"U  c #365F42",
"Y  c #366444",
"T  c #3B6E4B",
"R  c #3F734F",
"E  c #3F7751",
"W  c #434342",
"Q  c #494745",
"!  c #434B45",
"~  c #4B4B4B",
"^  c #4F5050",
"/  c #535354",
"(  c #5A5B5B",
")  c #437F56",
"_  c #616162",
"`  c #696969",
"'  c #834213",
"]  c #8B4513",
"[  c #8E4A17",
"{  c #81471A",
"}  c #844A1D",
"|  c #8D4C1C",
" . c #904E1C",
".. c #8E501F",
"X. c #865327",
"o. c #8E5627",
"O. c #875429",
"+. c #89562A",
"@. c #935423",
"#. c #975927",
"$. c #965A29",
"%. c #975D2C",
"&. c #985B29",
"*. c #995C2A",
"=. c #985E2D",
"-. c #9B602E",
";. c #9B602F",
":. c #9C612E",
">. c #448057",
",. c #47855A",
"<. c #4A8A5E",
"1. c #4B8C5F",
"2. c #4B8C60",
"3. c #4D8F61",
"4. c #4E9063",
"5. c #4F9264",
"6. c #519767",
"7. c #529768",
"8. c #529868",
/* pixels */
"8.8.8.8.8.8.8.8.8.8.8.8.8.8.8.8.8.8.8.8.8.8.8.8.8.8.8.8.8.8.8.8.8.8.8.8.8.8.8.8.8.8.8.8.8.8.8.8.",
"8.8.8.8.8.8.8.8.8.8.8.8.8.8.8.8.8.8.8.8.8.8.8.8.8.8.8.8.8.8.8.8.8.8.8.8.8.8.8.8.8.8.8.8.8.8.8.8.",
"8.8.8.8.8.8.8.8.8.8.8.8.8.8.8.8.8.8.8.8.8.8.8.8.8.8.8.8.8.8.8.8.8.8.8.8.8.8.8.8.8.8.8.8.8.8.8.8.",
"8.8.8.8.8.8.8.8.8.8.8.8.8.8.8.8.8.8.8.8.8.8.8.8.8.8.8.8.8.8.8.8.8.8.8.8.8.8.8.8.8.8.8.8.8.8.8.8.",
"8.8.8.8.8.8.8.8.8.8.8.8.8.8.8.8.8.8.8.8.8.8.8.8.8.8.8.8.8.8.8.8.8.8.8.8.8.8.8.8.8.8.8.8.8.8.8.8.",
"8.8.8.8.8.8.8.8.8.8.8.8.8.8.8.8.8.8.8.8.8.5.) E E E >.6.7.8.8.8.8.8.8.8.8.8.8.8.8.8.8.8.8.8.8.8.",
"8.8.8.8.8.8.8.8.8.8.8.8.8.8.8.8.8.8.6.,.H G 7 2 W > S H Y 2.6.8.8.8.8.8.8.8.8.8.8.8.8.8.8.8.8.8.",
"8.8.8.8.8.8.8.8.8.8.8.8.8.8.8.8.8.4.Y 8 2 / _ W t ~ ` ~ 1 A R 6.8.8.8.8.8.8.8.8.8.8.8.8.8.8.8.8.",
"8.8.8.8.8.8.8.8.8.8.8.8.8.8.8.8.4.U / ` ^ 2 9 <   9 5 q ( ` ! R 6.8.8.8.8.8.8.8.8.8.8.8.8.8.8.8.",
"8.8.8.8.8.8.8.8.8.8.8.8.8.8.8.4.U 2 ( / Z - L x K K p = Q ~ t W R 6.8.8.8.8.8.8.8.8.8.8.8.8.8.8.",
"8.8.8.8.8.8.8.8.8.8.8.8.8.8.8.E Q / w V l | =.] @.#.] o.k o W ` e <.8.8.8.8.8.8.8.8.8.8.8.8.8.8.",
"8.8.8.8.8.8.8.8.8.8.8.8.8.8.3.G _ / s %.]  .%.] @.#.] $.@.B 4 ( 2 Y 6.8.8.8.8.8.8.8.8.8.8.8.8.8.",
"8.8.8.8.8.8.8.8.8.8.8.8.8.8.<.6 / C m -.]  .%.] @.#.] $.@.] k r Q F 6.8.8.8.8.8.8.8.8.8.8.8.8.8.",
"8.8.8.8.8.8.8.8.8.8.8.8.8.6.T W 1 + [ -.]  .%.] @.#.] $.@.] +.0 _ ! ) 8.8.8.8.8.8.8.8.8.8.8.8.8.",
"8.8.8.8.8.8.8.8.8.8.8.8.8.6.F _ 3 z [ =.]  .%.] @.#.] $...] =.g Q / T 8.8.8.8.8.8.8.8.8.8.8.8.8.",
"8.8.8.8.8.8.8.8.8.8.8.8.8.6.F / 3 v [ =.]  .%.] @.#.] $.@.] -.b r ~ T 8.8.8.8.8.8.8.8.8.8.8.8.8.",
"8.8.8.8.8.8.8.8.8.8.8.8.8.6.D 1 @ B [ =.]  .%.] @.#.] $.@.] -.b . > T 8.8.8.8.8.8.8.8.8.8.8.8.8.",
"8.8.8.8.8.8.8.8.8.8.8.8.8.6.F ( 3 v [ =.]  .%.] @.#.] $.@.] :.b t ~ T 8.8.8.8.8.8.8.8.8.8.8.8.8.",
"8.8.8.8.8.8.8.8.8.8.8.8.8.6.F _ 3 v [ =.]  .%.] @.#.] $.| c I u W / T 8.8.8.8.8.8.8.8.8.8.8.8.8.",
"8.8.8.8.8.8.8.8.8.8.8.8.8.6.D r # v [ =.]  .%.] @.#.] &.K * < 2 > q T 8.8.8.8.8.8.8.8.8.8.8.8.8.",
"8.8.8.8.8.8.8.8.8.8.8.8.8.6.D t * v [ =.]  .%.] @.#.] &.K ; < , 2 q T 8.8.8.8.8.8.8.8.8.8.8.8.8.",
"8.8.8.8.8.8.8.8.8.8.8.8.8.6.F _ 3 v [ =.]  .%.] @.#.] $...B X.i W / T 8.8.8.8.8.8.8.8.8.8.8.8.8.",
"8.8.8.8.8.8.8.8.8.8.8.8.8.6.F / 3 v [ =.]  .%.] @.#.] $.@.] :.b r ~ T 8.8.8.8.8.8.8.8.8.8.8.8.8.",
"8.8.8.8.8.8.8.8.8.8.8.8.8.6.D 1 @ B [ -.[  .%.] @.#.] $.@.] -.b . > T 8.8.8.8.8.8.8.8.8.8.8.8.8.",
"8.8.8.8.8.8.8.8.8.8.8.8.8.6.F ( 3 v n a y { =.] @.#.] $.@.] -.b t ~ T 8.8.8.8.8.8.8.8.8.8.8.8.8.",
"8.8.8.8.8.8.8.8.8.8.8.8.8.6.F _ 3 v l X O { =.] @.#.] $.@.] -.b W / T 8.8.8.8.8.8.8.8.8.8.8.8.8.",
"8.8.8.8.8.8.8.8.8.8.8.8.8.6.D r # v u P u M =.] @.#.] $.@.] -.b > q T 8.8.8.8.8.8.8.8.8.8.8.8.8.",
"8.8.8.8.8.8.8.8.8.8.8.8.8.6.D t * v N a u } =.] @.#.] $.@.] -.b 2 q T 8.8.8.8.8.8.8.8.8.8.8.8.8.",
"8.8.8.8.8.8.8.8.8.8.8.8.8.6.F _ 3 v [ O.'  .%.] @.#.] $.@.] -.b W / T 8.8.8.8.8.8.8.8.8.8.8.8.8.",
"8.8.8.8.8.8.8.8.8.8.8.8.8.6.F / 3 v [ -.]  .%.] @.#.] $.@.] -.b r ~ T 8.8.8.8.8.8.8.8.8.8.8.8.8.",
"8.8.8.8.8.8.8.8.8.8.8.8.8.6.D 1 @ B [ =.]  .%.] @.#.] $...] -.b . > T 8.8.8.8.8.8.8.8.8.8.8.8.8.",
"8.8.8.8.8.8.8.8.8.8.8.8.8.6.F ( 3 v [ =.]  .%.] @.#.] $...] =.b t ~ T 8.8.8.8.8.8.8.8.8.8.8.8.8.",
"8.8.8.8.8.8.8.8.8.8.8.8.8.6.F _ 3 v [ =.]  .%.] @.#.] $.@.] -.b W / T 8.8.8.8.8.8.8.8.8.8.8.8.8.",
"8.8.8.8.8.8.8.8.8.8.8.8.8.6.D r # v [ =.]  .%.] @.#.] $.@.] =.g > q T 8.8.8.8.8.8.8.8.8.8.8.8.8.",
"8.8.8.8.8.8.8.8.8.8.8.8.8.6.D t * v [ =.]  .%.] @.#.] $.{ - : $ 1 q T 8.8.8.8.8.8.8.8.8.8.8.8.8.",
"8.8.8.8.8.8.8.8.8.8.8.8.8.6.F _ 3 v [ =.]  .%.] @.#.] &.J 2 2 q W / T 8.8.8.8.8.8.8.8.8.8.8.8.8.",
"8.8.8.8.8.8.8.8.8.8.8.8.8.6.F / 3 v [ =.]  .%.] @.#.] $.} i k & r ~ T 8.8.8.8.8.8.8.8.8.8.8.8.8.",
"8.8.8.8.8.8.8.8.8.8.8.8.8.6.D 1 @ B [ =.]  .%.] @.#.] $.@.] :.b . > T 8.8.8.8.8.8.8.8.8.8.8.8.8.",
"8.8.8.8.8.8.8.8.8.8.8.8.8.6.F ( 3 v [ =.]  .%.] @.#.] $.@.] -.b t ~ T 8.8.8.8.8.8.8.8.8.8.8.8.8.",
"8.8.8.8.8.8.8.8.8.8.8.8.8.6.F _ 3 v  .-.[  .=.] #.#.] *.@.] :.b W / T 8.8.8.8.8.8.8.8.8.8.8.8.8.",
"8.8.8.8.8.8.8.8.8.8.8.8.8.6.D r % y d k d f k i h j i j f i k & 1 2 T 8.8.8.8.8.8.8.8.8.8.8.8.8.",
"8.8.8.8.8.8.8.8.8.8.8.8.8.6.,.) ) ) ) ) ) ) ) ) ) ) ) ) ) ) ) ) ) ) 1.8.8.8.8.8.8.8.8.8.8.8.8.8.",
"8.8.8.8.8.8.8.8.8.8.8.8.8.8.8.8.8.8.8.8.8.8.8.8.8.8.8.8.8.8.8.8.8.8.8.8.8.8.8.8.8.8.8.8.8.8.8.8.",
"8.8.8.8.8.8.8.8.8.8.8.8.8.8.8.8.8.8.8.8.8.8.8.8.8.8.8.8.8.8.8.8.8.8.8.8.8.8.8.8.8.8.8.8.8.8.8.8.",
"8.8.8.8.8.8.8.8.8.8.8.8.8.8.8.8.8.8.8.8.8.8.8.8.8.8.8.8.8.8.8.8.8.8.8.8.8.8.8.8.8.8.8.8.8.8.8.8.",
"8.8.8.8.8.8.8.8.8.8.8.8.8.8.8.8.8.8.8.8.8.8.8.8.8.8.8.8.8.8.8.8.8.8.8.8.8.8.8.8.8.8.8.8.8.8.8.8.",
"8.8.8.8.8.8.8.8.8.8.8.8.8.8.8.8.8.8.8.8.8.8.8.8.8.8.8.8.8.8.8.8.8.8.8.8.8.8.8.8.8.8.8.8.8.8.8.8.",
"8.8.8.8.8.8.8.8.8.8.8.8.8.8.8.8.8.8.8.8.8.8.8.8.8.8.8.8.8.8.8.8.8.8.8.8.8.8.8.8.8.8.8.8.8.8.8.8."
};
