/* XPM */
static char *perso[] = {
/* columns rows colors chars-per-pixel */
"48 48 24 1 ",
"  c gray8",
". c #161616",
"X c #191919",
"o c gray12",
"O c #242222",
"+ c gray14",
"@ c #282828",
"# c #333131",
"$ c #3C3C3C",
"% c #774A2C",
"& c #7C4E2F",
"* c #7A5033",
"= c #805639",
"- c #BD682E",
"; c #845E44",
": c #886248",
"> c #529868",
", c #D09268",
"< c #868686",
"1 c #F7C4A2",
"2 c #FFC9A6",
"3 c #FCD2B6",
"4 c #C0C0C0",
"5 c white",
/* pixels */
">>>>>>>>>>>>>>>>>>>>>>>>>>>>>>>>>>>>>>>>>>>>>>>>",
">>>>>>>>>>>>>>>>>>>>>>>>>>>>>>>>>>>>>>>>>>>>>>>>",
">>>>>>>>>>>>>>>>>>%%%%%%%%%%%>>>>>>>>>>>>>>>>>>>",
">>>>>>>>>>>>>>>>%%======*****%%>>>>>>>>>>>>>>>>>",
">>>>>>>>>>>>>>>%===**;;*===::**%>>>>>>>>>>>>>>>>",
">>>>>>>>>>>>>>%::**=::::**;;::==%>>>>>>>>>>>>>>>",
">>>>>>>>>>>>>%::;:==::::==::;;;=%>>>>>>>>>>>>>>>",
">>>>>>>>>>>>%::;::=**;;=***;:::*=%%>>>>>>>>>>>>>",
">>>>>>>>>>>%==;::=*====*====*==%&&&%>>>>>>>>>>>>",
">>>>>>>>>>%==*===*===%=*=====*%&&&&=%>>>>>>>>>>>",
">>>>>>>>>>%=*===*==%%1%=*=%%=%&&&&&=%>>>>>>>>>>>",
">>>>>>>>>%==*==*==%111%==%13%&&&&====%>>>>>>>>>>",
">>>>>>>>>%=*==*==%111%==%1133%&&=====%>>>>>>>>>>",
">>>>>>>>>%*==*==%1133%=%113333%%=====%>>>>>>>>>>",
">>>>>>>>>%*==*==%1133%=%11333333%%===%>>>>>>>>>>",
">>>>>>>>>%*=*==%113331%=%133333333%==%>>>>>>>>>>",
">>>>>>>>>%*=*=%1%%%%%31%1333%%%%%3%==%>>>>>>>>>>",
">>>>>>>>>%*=*=%1133333313333333333%==%>>>>>>>>>>",
">>>>>>>>>%*==%113%%%%3333333%%%%333%%32>>>>>>>>>",
">>>>>>>>>%*==%11%5-@@3333333@@-5%333%32>>>>>>>>>",
">>>>>>>>>>%==%1155-@@3333333@@-55333%32>>>>>>>>>",
">>>>>>>>>>%=%11355-@@3332333@@-55333%32>>>>>>>>>",
">>>>>>>>>>>%213335,--3333233--,53333%2>>>>>>>>>>",
">>>>>>>>>>>>2133355553333333555533332>>>>>>>>>>>",
">>>>>>>>>>>>2333333333333333333333332>>>>>>>>>>>",
">>>>>>>>>>>>>23333333333333333333332>>>>>>>>>>>>",
">>>>>>>>>>>>>23333333333333333333332>>>>>>>>>>>>",
">>>>>>>>>>>>>>223333333333333333322>>>>>>>>>>>>>",
">>>>>>>>>>>>>>>>22333333333333322>>>>>>>>>>>>>>>",
">>>>>>>>>>>>>>>>>>2233333333322>>>>>>>>>>>>>>>>>",
">>>>>>>>>>>>>>>>ooOO222222222OOoo>>>>>>>>>>>>>>>",
">>>>>>>>>>>>>>>o###.X.<<<<<.X.###o>>>>>>>>>>>>>>",
">>>>>>>>>>>>>>>o##o#o+o444o+o#o##o>>>>>>>>>>>>>>",
">>>>>>>>>>>>>>>o##o##o#o4o#o##o##o>>>>>>>>>>>>>>",
">>>>>>>>>>>>>>>o##o#####4#####o##o>>>>>>>>>>>>>>",
">>>>>>>>>>>>>>>o##o#####4#####o##o>>>>>>>>>>>>>>",
">>>>>>>>>>>>>>>o44o#44##4##44#o44o>>>>>>>>>>>>>>",
">>>>>>>>>>>>>>23oo3o####4####o3oo32>>>>>>>>>>>>>",
">>>>>>>>>>>>>>23333o####4####o33332>>>>>>>>>>>>>",
">>>>>>>>>>>>>>2333o.ooooooooo.o3332>>>>>>>>>>>>>",
">>>>>>>>>>>>>>>222o...........o222>>>>>>>>>>>>>>",
">>>>>>>>>>>>>>>>>>o...........o>>>>>>>>>>>>>>>>>",
">>>>>>>>>>>>>>>>>>o.....o.....o>>>>>>>>>>>>>>>>>",
">>>>>>>>>>>>>>>>>>o$$$$.o.$$$$o>>>>>>>>>>>>>>>>>",
">>>>>>>>>>>>>>>>>>$4444$>$4444$>>>>>>>>>>>>>>>>>",
">>>>>>>>>>>>>>>>>>$$$$$$>$$$$$$>>>>>>>>>>>>>>>>>",
">>>>>>>>>>>>>>>>>>>$$$$>>>$$$$>>>>>>>>>>>>>>>>>>",
">>>>>>>>>>>>>>>>>>>>>>>>>>>>>>>>>>>>>>>>>>>>>>>>"
};
