/* XPM */
static char *wall[] = {
/* columns rows colors chars-per-pixel */
"48 48 204 2 ",
"   c #080100",
".  c #0F0908",
"X  c #110E07",
"o  c #120B0A",
"O  c #0D130C",
"+  c #13140F",
"@  c #131412",
"#  c #1B151B",
"$  c #191919",
"%  c #270802",
"&  c #2D1A08",
"*  c #331805",
"=  c #331B0C",
"-  c #291B17",
";  c #311D12",
":  c #06390D",
">  c #103608",
",  c #182116",
"<  c #0E3E17",
"1  c #0B3F1B",
"2  c #133C15",
"3  c #133F1A",
"4  c #242113",
"5  c #25231D",
"6  c #2B231E",
"7  c #34251D",
"8  c #261F22",
"9  c #1F3626",
"0  c #262324",
"q  c #292424",
"w  c #242925",
"e  c #2A2B24",
"r  c #262329",
"t  c #2B2429",
"y  c #232828",
"u  c #2C2A2A",
"i  c #332926",
"p  c #243526",
"a  c #2A3826",
"s  c #353323",
"d  c #37362B",
"f  c #482F1E",
"g  c #422E22",
"h  c #4A3627",
"j  c #443A29",
"k  c #4B3A2C",
"l  c #5B3E26",
"z  c #503329",
"x  c #523E2D",
"c  c #5C3F2B",
"v  c #4E3A30",
"b  c #533F30",
"n  c #0C421B",
"m  c #17471B",
"M  c #14441E",
"N  c #164625",
"B  c #1C4626",
"V  c #174924",
"C  c #1A4926",
"Z  c #1E4629",
"A  c #174A29",
"S  c #1D4929",
"D  c #1F5029",
"F  c #1F5531",
"G  c #234527",
"H  c #214D2A",
"J  c #3D4E2F",
"K  c #295627",
"L  c #26542B",
"P  c #2B4D37",
"I  c #245633",
"U  c #285733",
"Y  c #245935",
"T  c #30553C",
"R  c #39642F",
"E  c #2E6237",
"W  c #2C653A",
"Q  c #30623B",
"!  c #356A3F",
"~  c #3F6C3B",
"^  c #5B4023",
"/  c #54402E",
"(  c #5B402A",
")  c #474C33",
"_  c #554131",
"`  c #5F573B",
"'  c #64402A",
"]  c #6A422A",
"[  c #694836",
"{  c #60553B",
"}  c #416C3B",
"|  c #376C44",
" . c #496247",
".. c #546146",
"X. c #417547",
"o. c #4D7646",
"O. c #4C7C43",
"+. c #4A7F4B",
"@. c #51774C",
"#. c #507C4E",
"$. c #4D6A52",
"%. c #586950",
"&. c #4D7E54",
"*. c #557C55",
"=. c #6F6752",
"-. c #616D53",
";. c #756C57",
":. c #736C58",
">. c #727A60",
",. c #805339",
"<. c #8D5D42",
"1. c #9A5F46",
"2. c #8E614A",
"3. c #956245",
"4. c #9A6246",
"5. c #956449",
"6. c #9A6449",
"7. c #9A694B",
"8. c #886553",
"9. c #A56E50",
"0. c #AB7257",
"q. c #B3795D",
"w. c #9B796C",
"e. c #4A8145",
"r. c #46834E",
"t. c #4C834D",
"y. c #548747",
"u. c #52864D",
"i. c #5A8B4B",
"p. c #4B8252",
"a. c #4A8659",
"s. c #518155",
"d. c #5A8453",
"f. c #5B8F50",
"g. c #629453",
"h. c #6C9F56",
"j. c #679A58",
"k. c #6DA25B",
"l. c #7BAB57",
"z. c #72A55C",
"x. c #76AA5D",
"c. c #7DAB5C",
"v. c #5D8D60",
"b. c #529868",
"n. c #6B9264",
"m. c #6C9D64",
"M. c #75A362",
"N. c #7DA761",
"B. c #76A963",
"V. c #7CAB63",
"C. c #7BA26B",
"Z. c #7CA074",
"A. c #7FA078",
"S. c #80A75D",
"D. c #81AB5D",
"F. c #80B05A",
"G. c #8A8F6C",
"H. c #889769",
"J. c #919266",
"K. c #958D77",
"L. c #819170",
"P. c #989779",
"I. c #B98467",
"U. c #BE876B",
"Y. c #B68873",
"T. c #82A664",
"R. c #81AD62",
"E. c #85A868",
"W. c #87B263",
"Q. c #8CB56B",
"!. c #8AA977",
"~. c #93A777",
"^. c #94A47D",
"/. c #8AB578",
"(. c #93BC73",
"). c #96BB75",
"_. c #97BE79",
"`. c #9BBE7C",
"'. c #A7A076",
"]. c #C0876B",
"[. c #C3896C",
"{. c #9AC077",
"}. c #9BC47E",
"|. c #A1C87E",
" X c #8FA680",
".X c #9AA982",
"XX c #8CB580",
"oX c #A3A885",
"OX c #A6BB88",
"+X c #A3BC94",
"@X c #9DC484",
"#X c #9EC982",
"$X c #A5C684",
"%X c #A4CB85",
"&X c #A8CA85",
"*X c #A6C68A",
"=X c #AAC68B",
"-X c #A6C989",
";X c #A6C98B",
":X c #AAC98A",
">X c #A9C98D",
",X c #B1C98C",
"<X c #A5CB92",
"1X c #ADD090",
/* pixels */
"b.b.b.b.b.b.b.b.b.b.b.b.b.b.b.b.b.b.b.b.b.b.b.b.b.b.b.b.b.b.b.b.b.b.b.b.b.b.b.b.b.b.b.b.b.b.b.b.",
"b.b.b.b.b.b.b.b.b.b.b.b.b.b.b.b.b.b.b.b.b.n.j j j j j j H.b.b.b.b.b.b.b.b.b.b.b.b.b.b.b.b.b.b.b.",
"b.b.b.b.b.b.b.b.b.b.b.b.b.b.b.b.b.b.b.b.b.v.w w y w w w J.b.b.b.b.b.b.b.b.b.b.b.b.b.b.b.b.b.b.b.",
"b.b.b.b.b.b.b.b.b.b.b.b.b.b.b.b.b.` 0 0 0 a :X>X>X>X>X:X>.q b.b.b.b.b.b.b.b.b.b.b.b.b.b.b.b.b.b.",
"b.b.b.b.b.b.b.b.b.b.b.b.b.b.b.b.u $.u.c.%X}.c.c.c.S.S.S.).-Xi b.b.b.b.b.b.b.b.b.b.b.b.b.b.b.b.b.",
"b.b.b.b.b.b.b.b.b.b.b.b.b.b.b.H.w  .X.k._.(.c.Q.c.c.c.h././.q b.b.b.b.b.b.b.b.b.b.b.b.b.b.b.b.b.",
"b.b.b.b.b.b.b.b.b.b.b.b.b.b.b.r S C S t.B.c.c.-Xc.c.c.p.p.p.w b.b.b.b.b.b.b.b.b.b.b.b.b.b.b.b.b.",
"b.b.b.b.b.b.b.b.b.b.b.b.b.o e :X>X>X=XA p.p.p.c.c.D.c.C C C S.0 q q b.b.b.b.b.b.b.b.b.b.b.b.b.b.",
"b.b.b.b.b.b.b.b.b.b.b.b.+ !.T.V.V.c.S.N.c.M.p.c.y.t.m V.V.V.S.E.C.*.+ @ @ b.b.b.b.b.b.b.b.b.b.b.",
"b.b.b.b.b.b.b.b.b.b.b.b.q E.c.c.V.V.V.V.c.z.t.c.e.t.< c.c.c.c.c.B.p.O O o b.b.b.b.b.b.b.b.b.b.b.",
"b.b.b.b.b.b.b.b.b.b.b.b.q s.t.c.G B B B c.c.c.c.c.c.c.c.c.c.c.B V t.c.&X-Xq b.b.b.b.b.b.b.b.b.b.",
"b.b.b.b.b.b.b.b.b.b.b.b.q s.p.B -X>X>X:XS K c.c.c.c.t.c.(.%Xc.c.B.C p.V.N.>X0 ;.b.b.b.b.b.b.b.b.",
"b.b.b.b.b.b.b.b.b.b.a...L.L Q C.Q.M.m.Q.i.g.c.c.c.c.h.c.Q.Q.c.c.c.i.E V.c.:X- ;.b.b.b.b.b.b.b.b.",
"b.b.b.b.b.b.b.b.b.b.&.i -X: H -Xc.i.t.c.V.c.c.c.c.c.c.c.c.c.c.c.c.c.A V.c.&X5 ;.b.b.b.b.b.b.b.b.",
"b.b.b.b.b.b.b.b.q q -.>XD.2 H -Xc.c.x.Z B B B B B m c.c.c.c.c.c.c.c.A V.D.c.-X.Xq b.b.b.b.b.b.b.",
"b.b.b.b.b.b.i X >X>X_.c.l.W.V.S.c.R n :X:X:X:X:X:X<XM p.h.c.p.c.c.c.c.y.t.c.&X.Xt b.b.b.b.b.b.b.",
"b.b.b.b.b.Z.) a @X@X(.c.x.c.c.c.M.} K $X|.|.|.|.|.%XK &.g.x.u.c.c.z.c.i.y.x.OXP.j b.b.b.b.b.b.b.",
"b.b.b.b.b.r OX:Xc.c.c.c.p.V.c.c.B /.:Xc.c.c.c.c.c.c.-XN | t.c.c.x.p.c.c.c.c.r =.b.b.b.b.b.b.b.b.",
"b.b.b.Z.w c.c.c.c.c.c.c.c.>X%Xc.C XX:Xc.c.c.c.t.V.c.-XN | p.p.p.t.c.c.c.c.c.w =.b.b.b.b.b.b.b.b.",
"b.b.b.A.w c.y.t.t.c.c.c.c.R.R.c.V.~ L c.%X}.c.z.V.c.L C C D p.p.t.t.t.t.t.t.=X^.s d b.b.b.b.b.b.",
"b.b.b.!.# T.d.p.p.c.c.c.c.c.c.R.D.R 2 c.%X}.c.c.c.V.1 1 1 1 p.p.t.r.r.p.p.t.*X~.@ @ b.b.b.b.b.b.",
"b.b.b.b.b.w G B B t.g.c.c.c.c.p.c.c.c.c.c.c.c.c.> B :X=X=X=XC +.t.c.c.M N t.*X-X-X-X4   b.b.b.b.",
"b.b.b.b.b.e +X-X-XH Q p.p.p.t.c.c.c.c.*Xc.c.c.c.c.c.:XS.S.S.,XC m c.c.#X-XV -X-X-X-X-X*Xu b.b.b.",
"b.b.b.b.a...`.}.}.} O.f.f.m.m.W.c.c.c._.c.c.c.k.c.c.{.c.c.c._.o.o.c.c.(.@X@.Z.!.-X`.`.$X0 b.b.b.",
"b.b.b.^.w :XW.c.c.c.c.c.c.:X>X>Xc.c.c.c.c.c.c.p.V.c.c.c.c.c.c.*X-Xc.c.c.c.$XN @.-Xc.c.R.0 b.b.b.",
"b.b.$ d ,Xc.D.F.c.S d.%X%Xc.c.c.>XQ.c.c.c.c.c.c.c.c.c.D.g.p.c.c.c.c.c.c.c.t.C ~ c.c.c.R.0 b.b.b.",
"b.b.@ a t.c.y.u.3 1X_.R.R.c.c.c.c.c.c.t.c.z.t.c.c.V.2 +.t.p.+.+.+.+.+.+.+.M V.c.c.c.O.+.q b.b.b.",
"b.b.@ p p.c.u.p.C &X(.c.c.c.c.c.c.c.c.p.c.k.p.c.c.V.V p.p.p.p.p.p.p.p.p.p.G c.c.c.c.#.&.q b.b.b.",
"b.b.@ p t.t.t.p.C c.c.c.c.c.c.c.S X.t.p.p.p.p.c.e.p.p.V C C C C C C C C C c.c.j.Y Y w   b.b.b.b.",
"b.b.b. Xq t.t.p.Y C B S c.c.c.B Y X.p.Y Y P 0 Y p.p.p.p.! I Y Y Y Y Y Y F c.F P w r b.b.b.b.b.b.",
"b.b.b.b.oXG Q W Y I I I J ) J F Y W W 9 9 a k p Y W W W Y Y Y Y Y Y Y Y Y ~ p %..X^.b.b.b.b.b.b.",
"b.b.b.b.b.$ P Y Y Y Y Y # # , Y Y Y U 0 5 7 c 6 T Y Y Y Y Y Y Y Y Y Y Y Y Y $ :.b.b.b.b.b.b.b.b.",
"b.b.b.b.b.b.d q q q q u b.b.b.r r 0 q c c ] 4.c 5 0 0 0 Z Y Y 0 0 r q q q q b.b.b.b.b.b.b.b.b.b.",
"b.b.b.b.b.b.b.b.b.b.b.b.b.b.b.b.q v l 3.5.<.l 4.l c c c s 5 q x x 0 b.b.b.b.b.b.b.b.b.b.b.b.b.b.",
"b.b.b.b.b.b.b.b.b.b.b.b.b.b.b.b.p k v 9.3.<.] 2.] ] ] ] z i 6 k k a b.b.b.b.b.b.b.b.b.b.b.b.b.b.",
"b.b.b.b.b.b.b.b.b.b.b.b.b.b.b.b.b.{ 0 U.5.4.3.c 5.6.4.4.4.4.& 6 4 b.b.b.b.b.b.b.b.b.b.b.b.b.b.b.",
"b.b.b.b.b.b.b.b.b.b.b.b.b.b.b.b.b.b.b.0 ].U.4.c 5.6.l 4.q.].w b.b.b.b.b.b.b.b.b.b.b.b.b.b.b.b.b.",
"b.b.b.b.b.b.b.b.b.b.b.b.b.b.b.b.b.b.b.0 ].U.4.7.6.5.( 4.q.[.0 b.b.b.b.b.b.b.b.b.b.b.b.b.b.b.b.b.",
"b.b.b.b.b.b.b.b.b.b.b.b.b.b.b.b.b.b.b.0 ].I.6.6.6.5.( 4.q.[.0 b.b.b.b.b.b.b.b.b.b.b.b.b.b.b.b.b.",
"b.b.b.b.b.b.b.b.b.b.b.b.b.b.b.b.b.b.b.0 ].I.6.' 3.5.( 4.q.].0 b.b.b.b.b.b.b.b.b.b.b.b.b.b.b.b.b.",
"b.b.b.b.b.b.b.b.b.b.b.b.b.b.b.b.b.b.b.0 ].I.6.4.4.5.l 4.q.].0 b.b.b.b.b.b.b.b.b.b.b.b.b.b.b.b.b.",
"b.b.b.b.b.b.b.b.b.b.b.b.b.b.b.b.b.'.K.8.q.0.4.[ 3.4.,.4.9.q.8.K.G.b.b.b.b.b.b.b.b.b.b.b.b.b.b.b.",
"b.b.b.b.b.b.b.b.b.b.b.b.b.b.b.b.b.` 8 ].1.4.4.= 5.4.4.4.4.4.].q , b.b.b.b.b.b.b.b.b.b.b.b.b.b.b.",
"b.b.b.b.b.b.b.b.b.b.b.b.b.b.b.q r w.].1.= = = 4.% = 6.= h c 4.[.Y.t t b.b.b.b.b.b.b.b.b.b.b.b.b.",
"b.b.b.b.b.b.b.b.b.b.b.b.b.o i U.5.[ l * c ( ( l * * l c f * l ^ l c 5.7 8 b.b.b.b.b.b.b.b.b.b.b.",
"b.b.b.b.b.b.b.b.b.b.b.b.b.. q Y.8.[ _ ; b _ _ b & ; x b g ; x / / x 8.7 u b.b.b.b.b.b.b.b.b.b.b.",
"b.b.b.b.b.b.b.b.b.b.b.b.b.. r q q q q r q q q q q q q q 0 0 q q q q q 0 u b.b.b.b.b.b.b.b.b.b.b.",
"b.b.b.b.b.b.b.b.b.b.b.b.b.b.b.b.b.b.b.b.b.b.b.b.b.b.b.b.b.b.b.b.b.b.b.b.b.b.b.b.b.b.b.b.b.b.b.b."
};
